<svg width="69" height="92" viewBox="0 0 69 92" fill="none" xmlns="http://www.w3.org/2000/svg">
<path d="M68.0688 57.8086C68.0688 39.2384 53.0147 24.1843 34.4446 24.1843C32.5458 24.1843 30.6947 24.3715 28.8857 24.6835V50.9409C30.5235 49.5888 32.6234 48.7765 34.913 48.7765C40.1452 48.7765 44.3866 53.0179 44.3866 58.2499C44.3866 59.9351 43.9417 61.5143 43.1704 62.8854L68.0311 58.5548C68.0366 58.3042 68.0688 58.0605 68.0688 57.8086Z" fill="#249CFF"/>
<path d="M43.1703 62.8853C41.5467 65.7709 38.4599 67.7234 34.9129 67.7234C29.6808 67.7234 25.4394 63.482 25.4394 58.2498C25.4394 58.2223 25.4434 58.1957 25.4435 58.1682H25.4394V25.4403C25.4388 25.4405 25.4384 25.4406 25.4379 25.4407V0.567139H0.820312V59.2094H0.891078C1.6311 77.1248 16.3474 91.4327 34.4446 91.4327C52.7628 91.4327 67.6303 76.7766 68.0311 58.5547L43.1703 62.8853Z" fill="#249CFF"/>
</svg>
